<?xml version="1.0" encoding="UTF-8"?>
<svg width="110px" height="110px" viewBox="0 0 110 110" version="1.1" xmlns="http://www.w3.org/2000/svg" xmlns:xlink="http://www.w3.org/1999/xlink">
    <title>loading_icon</title>
    <defs>
        <linearGradient x1="50%" y1="0%" x2="50%" y2="100%" id="linearGradient-1">
            <stop stop-color="#0E9FDA" offset="0%"></stop>
            <stop stop-color="#BA4AF8" offset="100%"></stop>
        </linearGradient>
        <linearGradient x1="50%" y1="0%" x2="50%" y2="100%" id="linearGradient-2">
            <stop stop-color="#0E9FDA" offset="0%"></stop>
            <stop stop-color="#BA4AF8" offset="100%"></stop>
        </linearGradient>
        <linearGradient x1="50%" y1="0%" x2="50%" y2="100%" id="linearGradient-3">
            <stop stop-color="#0E9FDA" offset="0%"></stop>
            <stop stop-color="#BA4AF8" offset="100%"></stop>
        </linearGradient>
        <linearGradient x1="50%" y1="0%" x2="50%" y2="100%" id="linearGradient-4">
            <stop stop-color="#0E9FDA" offset="0%"></stop>
            <stop stop-color="#BA4AF8" offset="100%"></stop>
        </linearGradient>
        <linearGradient x1="50%" y1="0%" x2="50%" y2="100%" id="linearGradient-5">
            <stop stop-color="#0E9FDA" offset="0%"></stop>
            <stop stop-color="#BA4AF8" offset="100%"></stop>
        </linearGradient>
    </defs>
    <g id="loading_icon" stroke="none" stroke-width="1" fill="none" fill-rule="evenodd">
        <g id="Group-2" fill-rule="nonzero">
            <path d="M55.5,28 C57.4329333,28 59,26.5122785 59,24.6772152 L59,3.32278481 C59,1.48772152 57.4329333,0 55.5,0 C53.5670667,0 52,1.48772152 52,3.32278481 L52,24.6772152 C52,26.5125 53.5670667,28 55.5,28 Z" id="Path" fill="url(#linearGradient-1)"></path>
            <path d="M55.5,110 C57.4329333,110 59,108.512267 59,106.677189 L59,85.3228111 C59,83.4877333 57.4329333,82 55.5,82 C53.5670667,82 52,83.4877333 52,85.3228111 L52,106.677189 C52,108.512267 53.5670667,110 55.5,110 Z" id="Path" fill="url(#linearGradient-1)"></path>
            <path d="M71.2582055,31 C72.3851038,31 73.4809168,30.4311463 74.085016,29.4133423 L84.5625184,11.7587888 C85.463124,10.2414932 84.9285864,8.30146959 83.3691017,7.42577328 C81.8096171,6.54944257 79.8153722,7.06923525 78.914984,8.5867423 L68.4374816,26.2412958 C67.536876,27.7585914 68.0714136,29.6986151 69.6308983,30.5743114 C70.14435,30.8629676 70.7049732,31 71.2582055,31 Z" id="Path" fill="url(#linearGradient-2)"></path>
            <path d="M29.0665739,103 C30.1271782,103 31.1587304,102.431133 31.7270866,101.413305 L41.5882102,83.7587603 C42.4358344,82.2414292 41.9329475,80.30136 40.4650009,79.4256431 C38.9972588,78.5495033 37.1203329,79.0693082 36.2729134,80.5866394 L26.4117898,98.2411842 C25.5641656,99.7585154 26.0670525,101.698585 27.5349991,102.574301 C28.0182451,102.862753 28.5458876,103 29.0665739,103 Z" id="Path" fill="url(#linearGradient-3)"></path>
            <path d="M82.1755839,42 C82.7137741,42 83.2591543,41.8591452 83.7586455,41.5624371 L101.413399,31.0848377 C102.930693,30.1842798 103.450486,28.1903579 102.574367,26.6309559 C101.698248,25.0713365 99.758649,24.5368272 98.2413545,25.4376025 L80.5866011,35.9152019 C79.0693066,36.8157598 78.5495142,38.8096816 79.4256329,40.3690837 C80.013307,41.4152786 81.0795368,42 82.1755839,42 Z" id="Path" fill="url(#linearGradient-4)"></path>
            <path d="M10.175606,85 C10.7138077,85 11.2591996,84.8591388 11.7587016,84.5624172 L29.4134109,74.085211 C30.9305266,73.1848294 31.4505416,71.190817 30.5744041,69.6311266 C29.6982666,68.0714363 27.7586256,67.5366853 26.2412984,68.437719 L8.58658906,78.9149252 C7.06947339,79.8153067 6.54945841,81.8093192 7.42559588,83.3690095 C8.01307112,84.4148172 9.07932387,85 10.175606,85 Z" id="Path" fill="url(#linearGradient-4)"></path>
            <path d="M85.3227322,59 L106.677268,59 C108.512302,59 110,57.4329333 110,55.5 C110,53.5670667 108.512302,52 106.677268,52 L85.3227322,52 C83.487698,52 82,53.5670667 82,55.5 C82,57.4329333 83.4874765,59 85.3227322,59 Z" id="Path" fill="url(#linearGradient-5)"></path>
            <path d="M3.32283739,59 L24.6771626,59 C26.5122549,59 28,57.4329333 28,55.5 C28,53.5670667 26.5122549,52 24.6771626,52 L3.32283739,52 C1.48774506,52 -2.27373675e-13,53.5670667 -2.27373675e-13,55.5 C-2.27373675e-13,57.4329333 1.48774506,59 3.32283739,59 Z" id="Path" fill="url(#linearGradient-5)"></path>
            <path d="M99.8244161,85 C100.920675,85 101.986904,84.4152587 102.574367,83.3690282 C103.450486,81.8093556 102.930693,79.8151486 101.413399,78.9149947 L83.7586455,68.4374734 C82.2417739,67.5368848 80.3013286,68.0714122 79.4256329,69.6308674 C78.5495142,71.1905399 79.0693066,73.184747 80.5866011,74.0849008 L98.2413545,84.5624222 C98.7408457,84.858923 99.2862259,85 99.8244161,85 Z" id="Path" fill="url(#linearGradient-4)"></path>
            <path d="M27.8243601,42 C28.920638,42 29.9868866,41.4150479 30.5743596,40.3690467 C31.4504937,38.8093919 30.9306922,36.8152075 29.4133709,35.9150639 L11.7587294,25.4376616 C10.2416196,24.5366485 8.30156302,25.0716046 7.42564038,26.6310421 C6.54950628,28.1904795 7.06930778,30.1848813 8.5866291,31.0850249 L26.2412706,41.5624272 C26.7407707,41.859142 27.2861604,42 27.8243601,42 Z" id="Path" fill="url(#linearGradient-4)"></path>
            <path d="M81.7417945,103 C82.2950268,103 82.85565,102.862968 83.3691017,102.574311 C84.9285864,101.698404 85.463124,99.7583802 84.5625184,98.2412962 L74.085016,80.5867439 C73.1846278,79.0696599 71.1903829,78.5492328 69.6308983,79.4257749 C68.0714136,80.3016827 67.536876,82.2414947 68.4374816,83.7587902 L78.914984,101.413342 C79.5188658,102.430723 80.6148962,103 81.7417945,103 Z" id="Path" fill="url(#linearGradient-2)"></path>
            <path d="M38.9334261,31 C39.4541124,31 39.9817549,30.8629645 40.4650009,30.5743018 C41.9329475,29.6981628 42.4358344,27.7583069 41.5882102,26.2411887 L31.7270866,8.58687201 C30.8796671,7.06933079 29.0029458,6.54931492 27.5349991,7.42587685 C26.0670525,8.30201582 25.5641656,10.2418717 26.4117898,11.75899 L36.2729134,29.4135181 C36.8412696,30.4311335 37.8728218,31 38.9334261,31 Z" id="Path" fill="url(#linearGradient-3)"></path>
        </g>
    </g>
</svg>