<?xml version="1.0" encoding="UTF-8"?>
<svg width="208px" height="45px" viewBox="0 0 208 45" version="1.1" xmlns="http://www.w3.org/2000/svg" xmlns:xlink="http://www.w3.org/1999/xlink">
    <title>logo</title>
    <g id="logo" stroke="none" stroke-width="1" fill="none" fill-rule="evenodd">
        <g id="payvolut_logo" fill="#FFFFFF" fill-rule="nonzero">
            <path d="M15.2234067,0 C7.35406027,0 0.781531234,5.99273649 0.0631676627,13.8233561 L0,13.8233561 L0,37 C1.08462987,35.4646122 2.84817032,34.5515145 4.72896093,34.5515145 C6.60975153,34.5515145 8.37329198,35.4646122 9.45792185,37 L9.45792185,27.6122829 L9.45792185,14.9136166 C9.589031,12.4397634 11.2941318,10.3292901 13.6865521,9.67966725 C16.0789724,9.03004435 18.6184938,9.98795941 19.9845358,12.0552856 C21.3505778,14.1226117 21.2346824,16.832538 19.6971166,18.7758716 C18.1595508,20.7192051 15.5475033,21.457133 13.219269,20.6059243 L11.7893829,20.0837469 L11.7893829,30.0682382 L12.6794726,30.2174318 C13.5108849,30.3543453 14.3520676,30.4234318 15.1946941,30.4240074 C23.436401,30.1977386 30,23.4563831 30,15.2177419 C30,6.97910074 23.436401,0.237745274 15.1946941,0.0114764268 L15.2234067,0 Z" id="Path"></path>
            <circle id="Oval" cx="4.5" cy="40.5" r="4.5"></circle>
            <path d="M36.6229435,13.0002152 L43.6683728,13.0002152 C44.512925,13.0011809 45.2582579,13.5424424 45.5060604,14.3349686 L53.9167938,41.568437 C54.0939684,42.1395922 53.9847073,42.7593825 53.6223148,43.2388867 C53.2599224,43.7183909 52.6873425,44.0007871 52.0791061,43.9999984 L47.4704851,43.9999984 C46.6446987,43.9982163 45.9121544,43.4793958 45.6500798,42.7107046 L44.2329289,38.5770531 L35.7300232,38.5770531 L34.3531976,42.699395 C34.0944527,43.4745276 33.358002,43.9990303 32.5270316,43.9999984 L27.9184106,43.9999984 C27.3079881,43.9982204 26.7346367,43.7122254 26.3733087,43.2292802 C26.0119807,42.746335 25.9055466,42.1237396 26.0864837,41.5514726 L34.7679735,14.3180042 C35.0205997,13.5238895 35.7755181,12.9876787 36.6229435,13.0002152 Z M42.5450215,31.6103519 L40.240711,23.3091202 L37.6253185,31.6103519 L42.5450215,31.6103519 Z" id="Shape"></path>
            <path d="M59.3792425,14.2989616 L63.3729016,26.7238113 L67.6806687,14.2989616 C67.943333,13.5432721 68.6523663,13.0378685 69.4475263,13.0395336 L74.1311012,13.0395336 C74.7605029,13.0410685 75.3470776,13.3607284 75.6925518,13.8904622 C76.0380261,14.420196 76.0962253,15.0892016 75.8474772,15.6713427 L67.2768155,35.5398069 L67.2768155,42.1136819 C67.2768202,43.1532651 66.4414703,43.9968875 65.4089946,44 L60.9946552,44 C59.9621795,43.9968875 59.1268296,43.1532651 59.1268343,42.1136819 L59.1268343,35.5002733 L51.133907,15.5866278 C50.9035444,15.0065285 50.973385,14.3492188 51.3204128,13.8313154 C51.6674406,13.3134121 52.2466305,13.0021104 52.8671102,13 L57.6011668,13 C58.4102544,13.0009652 59.1273114,13.5248065 59.3792425,14.2989616 Z" id="Path"></path>
            <path d="M83.8353953,14.278002 L91.8365067,38.2376872 L100.20156,14.2553826 C100.464971,13.5029207 101.169441,13 101.959676,13 L102.133248,13 C102.739974,12.9992653 103.309113,13.2967317 103.658914,13.7974074 C104.008716,14.2980831 104.09543,14.9393476 103.891365,15.5164186 L94.2945109,42.7446188 C94.0310992,43.4970807 93.3266289,44 92.536394,44 L91.0806285,44 C90.2809717,44 89.5698851,43.4862345 89.3113134,42.7219993 L80.1007968,15.4937991 C79.9055074,14.9185315 79.9973189,14.2834239 80.3473069,13.7885599 C80.697295,13.2936959 81.2623705,13 81.8645127,13 L82.0660803,13 C82.865737,13 83.5768237,13.5137668 83.8353953,14.278002 L83.8353953,14.278002 Z" id="Path"></path>
            <path d="M120.042027,13 C127.32664,13 132,14.4241441 132,29.2363964 C132,43.1837838 127.595611,45 120.042027,45 C112.488443,45 108,43.6162162 108,29.2363964 C108,14.4241441 112.992762,13 120.042027,13 Z M120.042027,41.1542342 C126.127481,41.1542342 128.139155,39.3841441 128.139155,29.2363964 C128.139155,17.1282883 125.455055,16.8457658 120.042027,16.8457658 C114.713052,16.8457658 111.860845,17.1052252 111.860845,29.2363964 C111.860845,39.6436036 113.788466,41.1542342 120.042027,41.1542342 L120.042027,41.1542342 Z" id="Shape"></path>
            <path d="M138.89886,13 L139.02431,13 C140.073947,13 140.925729,13.8421659 140.928872,14.8830719 L140.928872,38.0284568 C140.928872,40.290405 142.337335,40.2282014 143.57473,40.2282014 L154.10114,40.2282014 C155.149852,40.2282014 156,41.0712814 156,42.1112733 L156,42.1112733 C156,43.1521839 155.150773,43.9968835 154.10114,44 L142.97599,44 C140.027911,44 137,43.2365925 137,38.4921561 L137,14.8830719 C137,14.3836502 137.200058,13.9046835 137.556163,13.551539 C137.912268,13.1983945 138.395251,13 138.89886,13 Z" id="Path"></path>
            <path d="M159.883669,14 L160.008116,14 C161.049357,14 161.894325,14.8365008 161.897442,15.8704047 L161.897442,31.3279233 C161.897442,41.1292933 164.776685,41.2528636 169.607477,41.2528636 C173.714215,41.2528636 177.062961,40.7922834 177.062961,31.3279233 L177.062961,15.8704047 C177.062961,14.8374087 177.906309,14 178.946631,14 L179.116331,14 C180.156652,14 181,14.8374087 181,15.8704047 L181,31.3279233 C181,44.9150373 174.732415,44.9992898 169.607477,44.9992898 C163.843335,44.9992898 158,45.3362996 158,31.3279233 L158,15.8704047 C158,14.8374087 158.843348,14 159.883669,14 Z" id="Path"></path>
            <path d="M187.894492,13 L206.099819,13 C207.147042,13 207.996865,13.8421659 208,14.8830719 L208,14.8830719 C207.996865,15.9239778 207.147042,16.7661484 206.099819,16.7661437 L198.863201,16.7661437 L198.863201,42.1112733 C198.863206,43.1521839 198.015928,43.9968835 196.96871,44 L196.843548,44 C195.795404,43.9968947 194.946491,43.1530993 194.943367,42.1112733 L194.943367,16.7661437 L187.894492,16.7661437 C187.392041,16.7661437 186.91017,16.5677492 186.554884,16.2146048 C186.199598,15.8614603 186,15.3824936 186,14.8830719 L186,14.8830719 C186,14.3836502 186.199598,13.9046835 186.554884,13.551539 C186.91017,13.1983945 187.392041,13 187.894492,13 L187.894492,13 Z" id="Path"></path>
        </g>
    </g>
</svg>